#!OML:ASF X:\für Bonn\!DataBase\2005_08_12_Daniel\c3d\Daniel.ASF
:FULLY-SPECIFIED
:DEGREES
62
root -11.0703 16.6043 19.7367 -513.038 65.6021 -508.182
lowerback 19.6734 0.702598 8.17277
upperback 2.14705 3.13503 2.02083
thorax -8.37672 1.37018 -3.27858
lowerneck -3.42466 9.70891 3.84838
upperneck -3.80201 12.9582 -12.8185
head 0.591149 6.56582 -4.56499
rclavicle 2.65378e-014 -2.22639e-014
rhumerus -49.3497 12.6962 -98.5346
rradius 89.4478
rwrist -1.98465
rhand -23.8126 31.884
rfingers 7.12502
rthumb 2.6583 1.92079
lclavicle 2.65378e-014 -2.22639e-014
lhumerus -74.7593 -6.29233 97.7354
lradius 91.7744
lwrist 15.9748
lhand -2.87989 -11.7158
lfingers 7.12502
lthumb 22.8292 16.9531
rfemur 5.81691 4.47784 27.4234
rtibia 33.0249
rfoot -26.2592 -3.42161
rtoes -21.516
lfemur -32.0188 7.72559 -16.6622
ltibia 94.0889
lfoot -10.2999 -5.28456
ltoes -2.06808
63
root -10.8438 16.7108 19.564 -513.8 65.3057 -509.119
lowerback 19.2666 0.996992 8.01127
upperback 1.92429 3.42527 1.88176
thorax -8.36672 1.49851 -3.3981
lowerneck -3.50439 9.48437 3.67775
upperneck -3.44922 12.6822 -12.4957
head 0.657151 6.41226 -4.42077
rclavicle 1.64991e-014 -2.70347e-014
rhumerus -49.9692 13.933 -99.472
rradius 91.2295
rwrist -1.53875
rhand -23.6323 31.9024
rfingers 7.12502
rthumb 2.83245 1.94146
lclavicle 1.64991e-014 -2.70347e-014
lhumerus -75.8681 -6.41684 97.6749
lradius 92.6022
lwrist 16.4236
lhand -3.24868 -11.608
lfingers 7.12502
lthumb 22.4753 17.1041
rfemur 7.14669 5.36111 27.4942
rtibia 31.7629
rfoot -24.0463 -5.11852
rtoes -22.9913
lfemur -32.9442 7.82678 -17.4279
ltibia 92.3907
lfoot -10.737 -4.41146
ltoes -3.54506
64
root -10.6086 16.8266 19.3836 -514.567 64.9694 -510.069
lowerback 18.8112 1.28098 7.90523
upperback 1.71044 3.70514 1.69326
thorax -8.31299 1.62169 -3.59412
lowerneck -3.65628 9.24404 3.444
upperneck -3.06836 12.3868 -12.1054
head 0.734846 6.24659 -4.23874
rclavicle -9.26337e-014 -2.46493e-014
rhumerus -50.5581 14.9519 -100.373
rradius 92.818
rwrist -1.03547
rhand -23.5404 32.1452
rfingers 7.12502
rthumb 2.92122 2.18547
lclavicle -9.26337e-014 -2.46493e-014
lhumerus -76.7115 -6.64332 97.5473
lradius 93.3556
lwrist 16.8644
lhand -3.76261 -11.1825
lfingers 7.12502
lthumb 21.9819 17.5884
rfemur 8.32876 6.23033 27.5657
rtibia 30.6311
rfoot -21.6074 -6.86138
rtoes -24.282
lfemur -33.6441 7.81194 -18.1448
ltibia 90.3563
lfoot -11.1201 -3.63548
ltoes -4.31562
65
root -10.3652 16.9462 19.1965 -515.217 64.5818 -510.917
lowerback 18.2689 1.54177 7.81542
upperback 1.513 3.95543 1.54089
thorax -8.19627 1.73555 -3.74428
lowerneck -3.86161 9.01713 3.09494
upperneck -2.66944 12.1167 -11.7053
head 0.822788 6.09374 -4.0295
rclavicle 5.76476e-014 -8.74653e-015
rhumerus -51.1794 15.9183 -101.178
rradius 94.3572
rwrist -0.649262
rhand -23.366 32.5323
rfingers 7.12502
rthumb 3.08964 2.57498
lclavicle 5.76476e-014 -8.74653e-015
lhumerus -77.6044 -6.7271 97.3781
lradius 94.2348
lwrist 17.1538
lhand -4.32767 -10.7025
lfingers 7.12502
lthumb 21.4393 18.1312
rfemur 9.37129 6.96344 27.6509
rtibia 29.6525
rfoot -18.8014 -8.52357
rtoes -24.8063
lfemur -34.1604 7.78448 -18.7581
ltibia 88.0574
lfoot -11.4962 -3.01017
ltoes -4.7621
66
root -10.1203 17.0661 19.0079 -515.877 64.1326 -511.757
lowerback 17.7516 1.76375 7.73548
upperback 1.31228 4.16005 1.36949
thorax -8.098 1.8264 -3.90775
lowerneck -4.02993 8.80662 2.73514
upperneck -2.3042 11.8639 -11.2588
head 0.892296 5.95163 -3.8063
rclavicle -5.33737e-014 -1.11319e-014
rhumerus -51.7209 16.7501 -101.966
rradius 95.7466
rwrist -0.436506
rhand -22.9914 32.9652
rfingers 7.12502
rthumb 3.45139 3.01336
lclavicle -5.33737e-014 -1.11319e-014
lhumerus -78.3468 -6.75003 97.0938
lradius 95.0255
lwrist 17.3283
lhand -4.78345 -10.1654
lfingers 7.12502
lthumb 21.0015 18.7175
rfemur 10.308 7.42949 27.6912
rtibia 28.8576
rfoot -15.7009 -10.0455
rtoes -24.521
lfemur -34.5478 7.73345 -19.3084
ltibia 85.5848
lfoot -11.8475 -2.58484
ltoes -4.64012
67
root -9.87224 17.1855 18.8188 -516.506 63.625 -512.581
lowerback 17.187 1.94884 7.60548
upperback 1.12185 4.30592 1.2184
thorax -7.97253 1.89359 -4.00195
lowerneck -4.20491 8.62608 2.34248
upperneck -1.94229 11.6542 -10.8304
head 0.966073 5.8319 -3.5832
rclavicle -2.26615e-014 2.14687e-014
rhumerus -52.3002 17.6277 -102.692
rradius 97.0701
rwrist -0.402939
rhand -22.4994 33.3569
rfingers 7.12502
rthumb 3.92653 3.41334
lclavicle -2.26615e-014 2.14687e-014
lhumerus -78.8638 -6.62896 96.7195
lradius 95.741
lwrist 17.3689
lhand -5.10972 -9.5855
lfingers 7.12502
lthumb 20.688 19.3319
rfemur 11.115 7.60749 27.6573
rtibia 28.2628
rfoot -12.4415 -11.3241
rtoes -23.4863
lfemur -34.8488 7.63384 -19.788
ltibia 82.9879
lfoot -12.0634 -2.33656
ltoes -4.05096
68
root -9.62365 17.298 18.6314 -517.095 63.0745 -513.331
lowerback 16.6608 2.09084 7.43207
upperback 0.918019 4.39814 1.10739
thorax -7.8945 1.93528 -4.01781
lowerneck -4.23288 8.48274 1.92847
upperneck -1.65447 11.4895 -10.4217
head 0.994948 5.74142 -3.37181
rclavicle 7.45443e-015 0
rhumerus -53.0402 18.6746 -103.41
rradius 98.5102
rwrist -0.720479
rhand -21.8264 33.5012
rfingers 7.12502
rthumb 4.57644 3.57062
lclavicle 7.45443e-015 0
lhumerus -79.2209 -6.35204 96.3112
lradius 96.3172
lwrist 17.3632
lhand -5.35163 -9.10606
lfingers 7.12502
lthumb 20.4555 19.8364
rfemur 11.8124 7.47533 27.5374
rtibia 27.8721
rfoot -9.1859 -12.2761
rtoes -22.0689
lfemur -35.0517 7.53066 -20.1835
ltibia 80.3115
lfoot -12.1741 -2.38277
ltoes -3.53526
